<svg width="21" height="22" viewBox="0 0 21 22" fill="none" xmlns="http://www.w3.org/2000/svg">
<path d="M7.95192 20.3721C11.7551 16.6151 14.73 13.6118 18.0391 10.3879C19.1316 9.25442 19.8235 8.14504 20.1148 7.05979C20.6247 5.01183 19.8408 3.23839 18.4761 1.85062C17.1651 0.548325 15.7631 -0.0666481 14.2701 0.0057136C12.777 0.0780753 11.3022 0.82569 9.84556 2.24856L0.559493 11.5093L2.08897 12.9924L11.375 3.76788C12.3279 2.86795 13.4618 2.01952 14.7617 2.14001C16.7423 2.41622 18.4914 4.8243 18.0391 6.51716C17.4657 8.0191 16.6752 8.70413 15.5811 9.79097C12.2528 13.0888 9.65769 15.639 6.4225 18.8527C5.20665 19.9564 4.42034 20.2552 3.29075 19.2145C2.7081 18.6357 2.45319 18.069 2.52601 17.5143C2.60683 16.8671 2.97565 16.4195 3.39997 15.9949L11.8848 7.5662C12.2725 7.18046 13.1552 6.44007 13.5236 6.77037C13.8061 7.42158 13.0784 8.04316 12.7224 8.39824L4.92943 16.1397L6.42246 17.659L14.2519 9.91761C15.6004 8.53592 16.5692 6.84751 15.053 5.28724C13.3761 3.85746 11.6095 4.81198 10.3554 6.04691L1.8705 14.4756C0.996537 15.3438 0.49883 16.2844 0.377467 17.2973C0.28172 18.7173 0.926203 19.8571 1.79767 20.7339C2.61682 21.5432 3.50177 21.9914 4.60172 22C5.92416 21.9474 7.22446 21.0821 7.95192 20.3721V20.3721Z" fill="black"/>
</svg>
