<svg width="23" height="22" viewBox="0 0 23 22" fill="none" xmlns="http://www.w3.org/2000/svg">
<g clip-path="url(#clip0_787_1324)">
<g filter="url(#filter0_d_787_1324)">
<path d="M8.95192 20.3721C12.7551 16.6151 15.73 13.6118 19.0391 10.3879C20.1316 9.25442 20.8235 8.14504 21.1148 7.05979C21.6247 5.01183 20.8408 3.23839 19.4761 1.85062C18.1651 0.548325 16.7631 -0.0666481 15.2701 0.0057136C13.777 0.0780753 12.3022 0.82569 10.8456 2.24856L1.55949 11.5093L3.08897 12.9924L12.375 3.76788C13.3279 2.86795 14.4618 2.01952 15.7617 2.14001C17.7423 2.41622 19.4914 4.8243 19.0391 6.51716C18.4657 8.0191 17.6752 8.70413 16.5811 9.79097C13.2528 13.0888 10.6577 15.639 7.4225 18.8527C6.20665 19.9564 5.42034 20.2552 4.29075 19.2145C3.7081 18.6357 3.45319 18.069 3.52601 17.5143C3.60683 16.8671 3.97565 16.4195 4.39997 15.9949L12.8848 7.5662C13.2725 7.18046 14.1552 6.44007 14.5236 6.77037C14.8061 7.42158 14.0784 8.04316 13.7224 8.39824L5.92943 16.1397L7.42246 17.659L15.2519 9.91761C16.6004 8.53592 17.5692 6.84751 16.053 5.28724C14.3761 3.85746 12.6095 4.81198 11.3554 6.04691L2.8705 14.4756C1.99654 15.3438 1.49883 16.2844 1.37747 17.2973C1.28172 18.7173 1.9262 19.8571 2.79767 20.7339C3.61682 21.5432 4.50177 21.9914 5.60172 22C6.92416 21.9474 8.22446 21.0821 8.95192 20.3721Z" fill="#713A82"/>
</g>
</g>
<defs>
<filter id="filter0_d_787_1324" x="1.36803" y="0" width="20.9034" height="23" filterUnits="userSpaceOnUse" color-interpolation-filters="sRGB">
<feFlood flood-opacity="0" result="BackgroundImageFix"/>
<feColorMatrix in="SourceAlpha" type="matrix" values="0 0 0 0 0 0 0 0 0 0 0 0 0 0 0 0 0 0 127 0" result="hardAlpha"/>
<feOffset dx="1" dy="1"/>
<feComposite in2="hardAlpha" operator="out"/>
<feColorMatrix type="matrix" values="0 0 0 0 1 0 0 0 0 1 0 0 0 0 1 0 0 0 1 0"/>
<feBlend mode="normal" in2="BackgroundImageFix" result="effect1_dropShadow_787_1324"/>
<feBlend mode="normal" in="SourceGraphic" in2="effect1_dropShadow_787_1324" result="shape"/>
</filter>
<clipPath id="clip0_787_1324">
<rect width="22.1466" height="22" fill="white" transform="translate(0.24646)"/>
</clipPath>
</defs>
</svg>
