<svg width="20" height="16" viewBox="0 0 20 16" fill="none" xmlns="http://www.w3.org/2000/svg">
<path d="M0.999886 0C0.754951 3.23108e-05 0.518547 0.0899567 0.33551 0.252717C0.152473 0.415478 0.0355358 0.639754 0.0068779 0.883008L-0.00012207 1.00001V7.50007C-0.000192642 8.39514 0.342661 9.25623 0.957945 9.90629C1.57323 10.5564 2.41418 10.946 3.30791 10.9951L3.49991 11.0001H16.585L13.293 14.2931C13.1208 14.4653 13.0174 14.6944 13.0021 14.9374C12.9868 15.1805 13.0607 15.4207 13.21 15.6131L13.293 15.7071C13.4652 15.8793 13.6943 15.9827 13.9373 15.998C14.1803 16.0133 14.4206 15.9394 14.613 15.7901L14.707 15.7071L19.7071 10.7071C19.7421 10.6722 19.7745 10.6347 19.8041 10.5951L19.8751 10.4851L19.9291 10.3711L19.9641 10.2661L19.9891 10.1491L19.9961 10.0891L20.0001 10.0001L19.9971 9.92509L19.9801 9.79909L19.9501 9.68808L19.9061 9.57708L19.8541 9.47908L19.7901 9.38708L19.7071 9.29308L14.707 4.29304C14.527 4.11369 14.2856 4.00956 14.0316 4.00181C13.7777 3.99405 13.5303 4.08325 13.3397 4.25129C13.1491 4.41932 13.0297 4.65359 13.0056 4.90652C12.9815 5.15944 13.0546 5.41206 13.21 5.61305L13.293 5.70705L16.585 9.00008H3.49991C3.12718 9.00008 2.7678 8.86132 2.49179 8.61083C2.21579 8.36033 2.04293 8.01605 2.0069 7.64507L1.9999 7.50007V1.00001C1.9999 0.73479 1.89454 0.480434 1.707 0.292896C1.51946 0.105358 1.2651 0 0.999886 0Z" fill="#713A82"/>
</svg>
