<svg width="41" height="41" viewBox="0 0 41 41" fill="none" xmlns="http://www.w3.org/2000/svg">
<path d="M34.3634 18.9833H7.53011C6.65566 18.9833 5.94678 19.6922 5.94678 20.5667V20.7333C5.94678 21.6078 6.65566 22.3167 7.53011 22.3167H34.3634C35.2379 22.3167 35.9468 21.6078 35.9468 20.7333V20.5667C35.9468 19.6922 35.2379 18.9833 34.3634 18.9833Z" fill="#713A82"/>
<path d="M34.3634 27.3167H7.53011C6.65566 27.3167 5.94678 28.0255 5.94678 28.9V29.0666C5.94678 29.9411 6.65566 30.65 7.53011 30.65H34.3634C35.2379 30.65 35.9468 29.9411 35.9468 29.0666V28.9C35.9468 28.0255 35.2379 27.3167 34.3634 27.3167Z" fill="#713A82"/>
<path d="M34.3634 10.65H7.53011C6.65566 10.65 5.94678 11.3589 5.94678 12.2333V12.4C5.94678 13.2744 6.65566 13.9833 7.53011 13.9833H34.3634C35.2379 13.9833 35.9468 13.2744 35.9468 12.4V12.2333C35.9468 11.3589 35.2379 10.65 34.3634 10.65Z" fill="#713A82"/>
</svg>
