<svg width="31" height="31" viewBox="0 0 31 31" fill="none" xmlns="http://www.w3.org/2000/svg">
<g filter="url(#filter0_d_440_3393)">
<path d="M15 30C23.2852 30 30 23.2852 30 15C30 6.71484 23.2852 0 15 0C6.71484 0 0 6.71484 0 15C0 23.2852 6.71484 30 15 30ZM13.5938 20.1562V16.4062H9.84375C9.06445 16.4062 8.4375 15.7793 8.4375 15C8.4375 14.2207 9.06445 13.5938 9.84375 13.5938H13.5938V9.84375C13.5938 9.06445 14.2207 8.4375 15 8.4375C15.7793 8.4375 16.4062 9.06445 16.4062 9.84375V13.5938H20.1562C20.9355 13.5938 21.5625 14.2207 21.5625 15C21.5625 15.7793 20.9355 16.4062 20.1562 16.4062H16.4062V20.1562C16.4062 20.9355 15.7793 21.5625 15 21.5625C14.2207 21.5625 13.5938 20.9355 13.5938 20.1562Z" fill="#8E5E9D"/>
</g>
<defs>
<filter id="filter0_d_440_3393" x="0" y="0" width="31" height="31" filterUnits="userSpaceOnUse" color-interpolation-filters="sRGB">
<feFlood flood-opacity="0" result="BackgroundImageFix"/>
<feColorMatrix in="SourceAlpha" type="matrix" values="0 0 0 0 0 0 0 0 0 0 0 0 0 0 0 0 0 0 127 0" result="hardAlpha"/>
<feOffset dx="1" dy="1"/>
<feComposite in2="hardAlpha" operator="out"/>
<feColorMatrix type="matrix" values="0 0 0 0 1 0 0 0 0 1 0 0 0 0 1 0 0 0 1 0"/>
<feBlend mode="normal" in2="BackgroundImageFix" result="effect1_dropShadow_440_3393"/>
<feBlend mode="normal" in="SourceGraphic" in2="effect1_dropShadow_440_3393" result="shape"/>
</filter>
</defs>
</svg>
