<svg width="23" height="23" viewBox="0 0 23 23" fill="none" xmlns="http://www.w3.org/2000/svg">
<path d="M11.5786 0.25C5.32724 0.25 0.264988 5.29 0.264988 11.5C0.264988 17.71 5.32724 22.75 11.5786 22.75C17.8413 22.75 22.9149 17.71 22.9149 11.5C22.9149 5.29 17.8413 0.25 11.5786 0.25ZM7.6262 7C8.56617 7 9.32494 7.75375 9.32494 8.6875C9.32494 9.62125 8.56617 10.375 7.6262 10.375C6.68623 10.375 5.92746 9.62125 5.92746 8.6875C5.92746 7.75375 6.68623 7 7.6262 7ZM16.9693 14.5938C15.8934 16.4387 13.8889 17.6875 11.5899 17.6875C9.29097 17.6875 7.28645 16.4387 6.21058 14.5938C5.99541 14.2225 6.27853 13.75 6.70888 13.75H16.471C16.9127 13.75 17.1845 14.2225 16.9693 14.5938ZM15.5537 10.375C14.6137 10.375 13.8549 9.62125 13.8549 8.6875C13.8549 7.75375 14.6137 7 15.5537 7C16.4936 7 17.2524 7.75375 17.2524 8.6875C17.2524 9.62125 16.4936 10.375 15.5537 10.375Z" fill="black"/>
</svg>
