<svg width="22" height="29" viewBox="0 0 22 29" fill="none" xmlns="http://www.w3.org/2000/svg">
<g filter="url(#filter0_d_163_263)">
<path d="M3.53634 24.0927L1.90106 25.3943C1.79239 25.4817 1.65784 25.528 1.51811 25.528C1.18174 25.528 0.907471 25.2554 0.907471 24.921V10.7124C0.907471 5.25941 5.35793 0.835297 10.8434 0.835297C16.3288 0.835297 20.7793 5.25941 20.7793 10.7124V24.921C20.7793 25.2554 20.505 25.528 20.1686 25.528C20.0289 25.528 19.8944 25.4817 19.7857 25.3943L18.1504 24.0927C17.9796 23.9539 17.7623 23.8818 17.5398 23.8818C17.2344 23.8818 16.9446 24.0259 16.7635 24.2677L14.8177 26.845C14.6625 27.0507 14.4141 27.1742 14.1553 27.1742C13.8966 27.1742 13.6482 27.0507 13.4929 26.845L11.5058 24.2111C11.3505 24.0053 11.1021 23.8818 10.8434 23.8818C10.5846 23.8818 10.3362 24.0053 10.181 24.2111L8.1938 26.845C8.03855 27.0507 7.79015 27.1742 7.5314 27.1742C7.27266 27.1742 7.02426 27.0507 6.86901 26.845L4.92323 24.2677C4.73693 24.0259 4.45231 23.8818 4.14699 23.8818C3.92446 23.8818 3.71229 23.959 3.54152 24.0927H3.53634ZM9.18739 10.7124C9.18739 9.80184 8.44737 9.0662 7.5314 9.0662C6.61544 9.0662 5.87542 9.80184 5.87542 10.7124C5.87542 11.6229 6.61544 12.3586 7.5314 12.3586C8.44737 12.3586 9.18739 11.6229 9.18739 10.7124ZM14.1553 12.3586C15.0713 12.3586 15.8113 11.6229 15.8113 10.7124C15.8113 9.80184 15.0713 9.0662 14.1553 9.0662C13.2394 9.0662 12.4994 9.80184 12.4994 10.7124C12.4994 11.6229 13.2394 12.3586 14.1553 12.3586Z" fill="#713A82"/>
</g>
<defs>
<filter id="filter0_d_163_263" x="0.907471" y="0.835297" width="20.8718" height="27.3389" filterUnits="userSpaceOnUse" color-interpolation-filters="sRGB">
<feFlood flood-opacity="0" result="BackgroundImageFix"/>
<feColorMatrix in="SourceAlpha" type="matrix" values="0 0 0 0 0 0 0 0 0 0 0 0 0 0 0 0 0 0 127 0" result="hardAlpha"/>
<feOffset dx="1" dy="1"/>
<feComposite in2="hardAlpha" operator="out"/>
<feColorMatrix type="matrix" values="0 0 0 0 1 0 0 0 0 1 0 0 0 0 1 0 0 0 1 0"/>
<feBlend mode="normal" in2="BackgroundImageFix" result="effect1_dropShadow_163_263"/>
<feBlend mode="normal" in="SourceGraphic" in2="effect1_dropShadow_163_263" result="shape"/>
</filter>
</defs>
</svg>
