<svg width="23" height="23" viewBox="0 0 23 23" fill="none" xmlns="http://www.w3.org/2000/svg">
<g filter="url(#filter0_d_509_1778)">
<path d="M11 -3.05176e-05C13.9887 -3.05176e-05 14.3616 0.0109694 15.5342 0.0659694C16.7057 0.120969 17.5032 0.30467 18.205 0.57747C18.931 0.85687 19.5426 1.23527 20.1542 1.84577C20.7135 2.39566 21.1463 3.06082 21.4225 3.79497C21.6942 4.49567 21.879 5.29427 21.934 6.46577C21.9857 7.63837 22 8.01127 22 11C22 13.9887 21.989 14.3616 21.934 15.5342C21.879 16.7057 21.6942 17.5032 21.4225 18.205C21.1471 18.9395 20.7142 19.6048 20.1542 20.1542C19.6042 20.7133 18.939 21.1461 18.205 21.4225C17.5043 21.6942 16.7057 21.879 15.5342 21.934C14.3616 21.9857 13.9887 22 11 22C8.0113 22 7.6384 21.989 6.4658 21.934C5.2943 21.879 4.4968 21.6942 3.795 21.4225C3.06056 21.1469 2.39528 20.714 1.8458 20.1542C1.28635 19.6044 0.853524 18.9392 0.5775 18.205C0.3047 17.5043 0.121 16.7057 0.0659999 15.5342C0.0142999 14.3616 0 13.9887 0 11C0 8.01127 0.0109999 7.63837 0.0659999 6.46577C0.121 5.29317 0.3047 4.49677 0.5775 3.79497C0.85276 3.06037 1.28568 2.39502 1.8458 1.84577C2.39544 1.28612 3.06067 0.853272 3.795 0.57747C4.4968 0.30467 5.2932 0.120969 6.4658 0.0659694C7.6384 0.0142694 8.0113 -3.05176e-05 11 -3.05176e-05ZM11 5.49997C9.54131 5.49997 8.14236 6.07943 7.11091 7.11088C6.07946 8.14233 5.5 9.54128 5.5 11C5.5 12.4587 6.07946 13.8576 7.11091 14.8891C8.14236 15.9205 9.54131 16.5 11 16.5C12.4587 16.5 13.8576 15.9205 14.8891 14.8891C15.9205 13.8576 16.5 12.4587 16.5 11C16.5 9.54128 15.9205 8.14233 14.8891 7.11088C13.8576 6.07943 12.4587 5.49997 11 5.49997V5.49997ZM18.15 5.22497C18.15 4.8603 18.0051 4.51056 17.7473 4.2527C17.4894 3.99484 17.1397 3.84997 16.775 3.84997C16.4103 3.84997 16.0606 3.99484 15.8027 4.2527C15.5449 4.51056 15.4 4.8603 15.4 5.22497C15.4 5.58964 15.5449 5.93938 15.8027 6.19724C16.0606 6.4551 16.4103 6.59997 16.775 6.59997C17.1397 6.59997 17.4894 6.4551 17.7473 6.19724C18.0051 5.93938 18.15 5.58964 18.15 5.22497ZM11 7.69997C11.8752 7.69997 12.7146 8.04765 13.3335 8.66652C13.9523 9.28539 14.3 10.1248 14.3 11C14.3 11.8752 13.9523 12.7146 13.3335 13.3334C12.7146 13.9523 11.8752 14.3 11 14.3C10.1248 14.3 9.28542 13.9523 8.66655 13.3334C8.04768 12.7146 7.7 11.8752 7.7 11C7.7 10.1248 8.04768 9.28539 8.66655 8.66652C9.28542 8.04765 10.1248 7.69997 11 7.69997V7.69997Z" fill="#713A82"/>
</g>
<defs>
<filter id="filter0_d_509_1778" x="0" y="-3.05176e-05" width="23" height="23" filterUnits="userSpaceOnUse" color-interpolation-filters="sRGB">
<feFlood flood-opacity="0" result="BackgroundImageFix"/>
<feColorMatrix in="SourceAlpha" type="matrix" values="0 0 0 0 0 0 0 0 0 0 0 0 0 0 0 0 0 0 127 0" result="hardAlpha"/>
<feOffset dx="1" dy="1"/>
<feComposite in2="hardAlpha" operator="out"/>
<feColorMatrix type="matrix" values="0 0 0 0 1 0 0 0 0 1 0 0 0 0 1 0 0 0 1 0"/>
<feBlend mode="normal" in2="BackgroundImageFix" result="effect1_dropShadow_509_1778"/>
<feBlend mode="normal" in="SourceGraphic" in2="effect1_dropShadow_509_1778" result="shape"/>
</filter>
</defs>
</svg>
