<svg width="18" height="19" viewBox="0 0 18 19" fill="none" xmlns="http://www.w3.org/2000/svg">
<g filter="url(#filter0_d_371_2035)">
<path d="M13.8101 7.72528C13.8101 9.22774 13.3223 10.6156 12.5006 11.7417L16.6454 15.889C17.0546 16.2981 17.0546 16.9626 16.6454 17.3718C16.2362 17.781 15.5715 17.781 15.1623 17.3718L11.0174 13.2245C9.8912 14.0494 8.50304 14.5338 7.00029 14.5338C3.23849 14.5338 0.19043 11.4863 0.19043 7.72528C0.19043 3.96423 3.23849 0.916756 7.00029 0.916756C10.7621 0.916756 13.8101 3.96423 13.8101 7.72528ZM7.00029 12.4389C9.60309 12.4389 11.7148 10.3276 11.7148 7.72528C11.7148 5.12298 9.60309 3.01169 7.00029 3.01169C4.39748 3.01169 2.28577 5.12298 2.28577 7.72528C2.28577 10.3276 4.39748 12.4389 7.00029 12.4389Z" fill="#713A82"/>
</g>
<defs>
<filter id="filter0_d_371_2035" x="0.19043" y="0.916756" width="17.762" height="17.7619" filterUnits="userSpaceOnUse" color-interpolation-filters="sRGB">
<feFlood flood-opacity="0" result="BackgroundImageFix"/>
<feColorMatrix in="SourceAlpha" type="matrix" values="0 0 0 0 0 0 0 0 0 0 0 0 0 0 0 0 0 0 127 0" result="hardAlpha"/>
<feOffset dx="1" dy="1"/>
<feComposite in2="hardAlpha" operator="out"/>
<feColorMatrix type="matrix" values="0 0 0 0 1 0 0 0 0 1 0 0 0 0 1 0 0 0 1 0"/>
<feBlend mode="normal" in2="BackgroundImageFix" result="effect1_dropShadow_371_2035"/>
<feBlend mode="normal" in="SourceGraphic" in2="effect1_dropShadow_371_2035" result="shape"/>
</filter>
</defs>
</svg>
