<svg width="22" height="25" viewBox="0 0 22 25" fill="none" xmlns="http://www.w3.org/2000/svg">
<g filter="url(#filter0_d_509_1758)">
<path d="M19.25 -3.05176e-05H1.75C1.28587 -3.05176e-05 0.840752 0.184344 0.512563 0.512533C0.184374 0.840721 0 1.28584 0 1.74997V17.5C0 17.9641 0.184374 18.4092 0.512563 18.7374C0.840752 19.0656 1.28587 19.25 1.75 19.25H3.5V22.75C3.49953 22.9157 3.54671 23.078 3.63592 23.2176C3.72512 23.3572 3.85259 23.4683 4.00312 23.5375C4.11735 23.5985 4.24554 23.6287 4.375 23.625C4.5804 23.628 4.77945 23.5538 4.93281 23.4172L9.94219 19.25H14.5578C14.9658 19.251 15.361 19.1076 15.6734 18.8453L20.3656 14.9297C20.564 14.7685 20.7239 14.565 20.8337 14.3342C20.9434 14.1033 21.0002 13.8509 21 13.5953V1.74997C21 1.28584 20.8156 0.840721 20.4874 0.512533C20.1592 0.184344 19.7141 -3.05176e-05 19.25 -3.05176e-05V-3.05176e-05ZM10.5 11.375C10.5 11.607 10.4078 11.8296 10.2437 11.9937C10.0796 12.1578 9.85706 12.25 9.625 12.25C9.39294 12.25 9.17038 12.1578 9.00628 11.9937C8.84219 11.8296 8.75 11.607 8.75 11.375V6.12497C8.75 5.89291 8.84219 5.67035 9.00628 5.50625C9.17038 5.34216 9.39294 5.24997 9.625 5.24997C9.85706 5.24997 10.0796 5.34216 10.2437 5.50625C10.4078 5.67035 10.5 5.89291 10.5 6.12497V11.375ZM15.75 11.375C15.75 11.607 15.6578 11.8296 15.4937 11.9937C15.3296 12.1578 15.1071 12.25 14.875 12.25C14.6429 12.25 14.4204 12.1578 14.2563 11.9937C14.0922 11.8296 14 11.607 14 11.375V6.12497C14 5.89291 14.0922 5.67035 14.2563 5.50625C14.4204 5.34216 14.6429 5.24997 14.875 5.24997C15.1071 5.24997 15.3296 5.34216 15.4937 5.50625C15.6578 5.67035 15.75 5.89291 15.75 6.12497V11.375Z" fill="#713A82"/>
</g>
<defs>
<filter id="filter0_d_509_1758" x="0" y="-3.05176e-05" width="22" height="24.6253" filterUnits="userSpaceOnUse" color-interpolation-filters="sRGB">
<feFlood flood-opacity="0" result="BackgroundImageFix"/>
<feColorMatrix in="SourceAlpha" type="matrix" values="0 0 0 0 0 0 0 0 0 0 0 0 0 0 0 0 0 0 127 0" result="hardAlpha"/>
<feOffset dx="1" dy="1"/>
<feComposite in2="hardAlpha" operator="out"/>
<feColorMatrix type="matrix" values="0 0 0 0 1 0 0 0 0 1 0 0 0 0 1 0 0 0 1 0"/>
<feBlend mode="normal" in2="BackgroundImageFix" result="effect1_dropShadow_509_1758"/>
<feBlend mode="normal" in="SourceGraphic" in2="effect1_dropShadow_509_1758" result="shape"/>
</filter>
</defs>
</svg>
