<svg width="30" height="35" viewBox="0 0 30 35" fill="none" xmlns="http://www.w3.org/2000/svg">
<path d="M24.9935 3.17868e-05C24.336 3.17865e-05 23.685 0.129528 23.0776 0.381131C22.4702 0.632734 21.9182 1.00151 21.4534 1.46641C20.9885 1.93131 20.6197 2.48323 20.3681 3.09065C20.1165 3.69807 19.9871 4.3491 19.9871 5.00656C19.9892 5.52603 20.0721 6.04202 20.2329 6.53599L8.71159 13.1878C8.24311 12.6699 7.67145 12.2556 7.03334 11.9718C6.39523 11.6879 5.70479 11.5407 5.0064 11.5397C3.67862 11.5397 2.40522 12.0671 1.46634 13.006C0.527459 13.9449 0 15.2183 0 16.5461C0 17.8738 0.527459 19.1472 1.46634 20.0861C2.40522 21.025 3.67862 21.5524 5.0064 21.5524C6.03382 21.5503 7.03572 21.2321 7.8761 20.641L19.7018 27.4685C19.5419 27.9632 19.4601 28.4799 19.4593 28.9998C19.4593 30.3276 19.9867 31.6009 20.9256 32.5398C21.8645 33.4787 23.1379 34.0062 24.4657 34.0062C25.7935 34.0062 27.0668 33.4787 28.0057 32.5398C28.9446 31.6009 29.4721 30.3276 29.4721 28.9998C29.4721 28.3423 29.3426 27.6913 29.091 27.0839C28.8394 26.4765 28.4707 25.9245 28.0058 25.4596C27.5409 24.9947 26.989 24.626 26.3816 24.3744C25.7742 24.1227 25.1231 23.9933 24.4657 23.9933C23.7673 23.9944 23.0768 24.1416 22.4387 24.4255C21.8006 24.7093 21.2289 25.1236 20.7605 25.6416L9.33817 19.0469C9.77855 18.2869 10.0112 17.4244 10.0129 16.546C10.0108 16.0266 9.92799 15.5106 9.76727 15.0166L21.2884 8.36474C21.7569 8.88271 22.3285 9.29693 22.9667 9.58078C23.6048 9.86463 24.2952 10.0118 24.9936 10.0129C25.6511 10.0129 26.3021 9.88343 26.9095 9.63183C27.5169 9.38024 28.0688 9.01147 28.5337 8.54658C28.9985 8.0817 29.3673 7.5298 29.6189 6.92239C29.8705 6.31499 30 5.66397 30 5.00652C30 4.34906 29.8705 3.69804 29.6189 3.09063C29.3674 2.48321 28.9986 1.93129 28.5337 1.46639C28.0688 1.00149 27.5169 0.63271 26.9095 0.381107C26.3021 0.129504 25.6509 3.17865e-05 24.9935 3.17868e-05Z" fill="black"/>
</svg>
