<svg width="28" height="22" viewBox="0 0 28 22" fill="none" xmlns="http://www.w3.org/2000/svg">
<path d="M25.2 21C24 21.6 22.4 21.2 21.6 20L19.4 17.2H8.60001L6.40001 20C5.40001 21.4 3.60001 21.6 2.20001 20.6C1.20001 19.8 0.800012 18.6 1.00001 17.6L2.40001 10.2C2.80001 7.8 5.00001 6 7.40001 6H13V3C13 1.4 14.2 0 15.8 0H22C22.6 0 23 0.4 23 1C23 1.6 22.6 2 22 2H16C15.4 2 15 2.4 15 2.8V6H20.6C23 6 25.2 7.8 25.6 10.2L27 17.6C27.2 19 26.6 20.4 25.2 21ZM11 11C11 9.4 9.60001 8 8.00001 8C6.40001 8 5.00001 9.4 5.00001 11C5.00001 12.6 6.40001 14 8.00001 14C9.60001 14 11 12.6 11 11ZM23 11C23 10.4 22.6 10 22 10H21V9C21 8.4 20.6 8 20 8C19.4 8 19 8.4 19 9V10H18C17.4 10 17 10.4 17 11C17 11.6 17.4 12 18 12H19V13C19 13.6 19.4 14 20 14C20.6 14 21 13.6 21 13V12H22C22.6 12 23 11.6 23 11Z" fill="#713A82"/>
</svg>
