<svg width="33" height="29" viewBox="0 0 33 29" fill="none" xmlns="http://www.w3.org/2000/svg">
<path d="M32.6357 1.75708C32.7337 1.59911 32.7832 1.41585 32.778 1.23002C32.7728 1.0442 32.7132 0.863975 32.6066 0.711697C32.5 0.559418 32.351 0.441782 32.1782 0.373372C32.0053 0.304962 31.8162 0.288786 31.6342 0.32685L2.50501 6.4136L2.50314 6.41327L1.59831 6.60089C1.42691 6.63653 1.2687 6.71886 1.14116 6.83877C1.01361 6.95868 0.921689 7.11152 0.875548 7.28039C0.829407 7.44927 0.830842 7.62761 0.879694 7.79572C0.928545 7.96383 1.02291 8.11516 1.15237 8.23301L1.83352 8.85457L1.83473 8.85864L10.1296 16.4506L14.4266 26.8421L14.4296 26.8465L14.7807 27.6991C14.8476 27.8606 14.9577 28.0005 15.0989 28.1034C15.2402 28.2063 15.407 28.2682 15.5812 28.2824C15.7554 28.2965 15.9301 28.2624 16.0861 28.1836C16.2421 28.1049 16.3733 27.9846 16.4654 27.8361L32.6357 1.75708V1.75708ZM28.5837 4.68782L12.0946 16.2339L11.8039 15.5308C11.7507 15.4018 11.6696 15.2861 11.5666 15.1919L11.0053 14.6783L27.4945 3.13217L29.8532 2.63968L28.5856 4.68815L28.5837 4.68782Z" fill="black"/>
</svg>
