<svg width="42" height="42" viewBox="0 0 42 42" fill="none" xmlns="http://www.w3.org/2000/svg">
<rect x="0.0531006" y="0.149994" width="41" height="41" rx="20.5" fill="#EAF7F7"/>
<g filter="url(#filter0_d_637_305)">
<path d="M20.5531 20.65C24.1828 20.65 27.1245 17.6283 27.1245 13.9C27.1245 10.1717 24.1828 7.14999 20.5531 7.14999C16.9234 7.14999 13.9817 10.1717 13.9817 13.9C13.9817 17.6283 16.9234 20.65 20.5531 20.65ZM18.2069 23.1812C13.15 23.1812 9.0531 27.3894 9.0531 32.5838C9.0531 33.4486 9.73591 34.15 10.5779 34.15H30.5283C31.3703 34.15 32.0531 33.4486 32.0531 32.5838C32.0531 27.3894 27.9562 23.1812 22.8993 23.1812H18.2069Z" fill="#713A82"/>
</g>
<defs>
<filter id="filter0_d_637_305" x="9.0531" y="7.14999" width="24" height="28" filterUnits="userSpaceOnUse" color-interpolation-filters="sRGB">
<feFlood flood-opacity="0" result="BackgroundImageFix"/>
<feColorMatrix in="SourceAlpha" type="matrix" values="0 0 0 0 0 0 0 0 0 0 0 0 0 0 0 0 0 0 127 0" result="hardAlpha"/>
<feOffset dx="1" dy="1"/>
<feComposite in2="hardAlpha" operator="out"/>
<feColorMatrix type="matrix" values="0 0 0 0 1 0 0 0 0 1 0 0 0 0 1 0 0 0 1 0"/>
<feBlend mode="normal" in2="BackgroundImageFix" result="effect1_dropShadow_637_305"/>
<feBlend mode="normal" in="SourceGraphic" in2="effect1_dropShadow_637_305" result="shape"/>
</filter>
</defs>
</svg>
