<svg width="28" height="25" viewBox="0 0 28 25" fill="none" xmlns="http://www.w3.org/2000/svg">
<g filter="url(#filter0_d_163_265)">
<path d="M11.6139 17.9097C11.5584 17.9388 11.5082 17.952 11.466 17.952C11.3339 17.952 11.252 17.886 11.2256 17.7539C11.0988 17.2652 10.869 16.8558 10.5335 16.5282C10.2192 16.2139 9.79917 15.9841 9.27615 15.8361C9.12823 15.7939 9.05691 15.7199 9.05691 15.6169C9.05691 15.5667 9.07011 15.5165 9.09917 15.4584C10.0845 13.649 10.6497 12.6531 10.7977 12.4709C10.9033 12.3309 11.1701 12.0509 11.6007 11.6309C12.0312 11.2109 12.4697 10.7988 12.9162 10.3946C13.3071 10.046 15.4362 8.37124 19.3007 5.37312C23.1652 2.37501 25.2916 0.72935 25.6746 0.433501C25.849 0.301425 26.0339 0.235387 26.2294 0.235387C26.3826 0.235387 26.5014 0.280295 26.586 0.372748C26.7128 0.49954 26.7735 0.634257 26.7735 0.782182C26.7735 0.90105 26.7312 1.02256 26.6467 1.14935C26.6388 1.14935 25.8675 2.14784 24.3301 4.14218C22.7928 6.13652 21.1894 8.21539 19.5173 10.3761C17.8478 12.5369 16.8784 13.7811 16.6143 14.1086C16.2233 14.5973 15.8429 15.0199 15.4705 15.3765C15.1007 15.7331 14.8101 15.9894 14.6014 16.1426C14.5169 16.198 14.2263 16.375 13.7324 16.6709C13.2358 16.9667 12.7577 17.2494 12.2954 17.5161L11.6139 17.9097ZM3.68672 23.4252C2.93917 23.4252 2.08596 23.3829 1.12974 23.2984C1.06634 23.2905 1.01351 23.2667 0.965964 23.2244C0.921058 23.1822 0.894643 23.1294 0.886719 23.066V23.0343C0.886719 22.9075 0.944832 22.8282 1.0637 22.7939C1.30936 22.7041 1.54181 22.601 1.76634 22.4901C1.99087 22.3792 2.18634 22.2682 2.35804 22.1599C2.52974 22.0516 2.69615 21.9195 2.85728 21.7611C3.01842 21.6026 3.15313 21.4705 3.26144 21.3569C3.36974 21.246 3.48068 21.0954 3.59691 20.9052C3.71313 20.7177 3.8003 20.5671 3.85842 20.4588C3.91653 20.3505 3.99313 20.1946 4.08294 19.9912C4.17276 19.7878 4.23615 19.6426 4.26521 19.5554C4.29691 19.4682 4.34974 19.3229 4.42898 19.1195C4.59804 18.6863 4.80672 18.3139 5.05766 18.0022C5.30861 17.6905 5.57276 17.4607 5.85011 17.3101C6.12747 17.1595 6.3837 17.0512 6.62672 16.9852C6.8671 16.9192 7.09955 16.8848 7.32408 16.8848C8.19842 16.8848 8.89313 17.1411 9.41087 17.6509C9.98408 18.2241 10.2694 18.9188 10.2694 19.7377C10.2694 20.4086 10.066 21.0109 9.66181 21.5418C9.38181 21.8561 9.1071 22.1044 8.83238 22.2867C7.6886 23.0475 5.97162 23.4252 3.68672 23.4252Z" fill="#713A82"/>
</g>
<defs>
<filter id="filter0_d_163_265" x="0.886719" y="0.235382" width="26.8867" height="24.1898" filterUnits="userSpaceOnUse" color-interpolation-filters="sRGB">
<feFlood flood-opacity="0" result="BackgroundImageFix"/>
<feColorMatrix in="SourceAlpha" type="matrix" values="0 0 0 0 0 0 0 0 0 0 0 0 0 0 0 0 0 0 127 0" result="hardAlpha"/>
<feOffset dx="1" dy="1"/>
<feComposite in2="hardAlpha" operator="out"/>
<feColorMatrix type="matrix" values="0 0 0 0 1 0 0 0 0 1 0 0 0 0 1 0 0 0 1 0"/>
<feBlend mode="normal" in2="BackgroundImageFix" result="effect1_dropShadow_163_265"/>
<feBlend mode="normal" in="SourceGraphic" in2="effect1_dropShadow_163_265" result="shape"/>
</filter>
</defs>
</svg>
