<svg width="23" height="19" viewBox="0 0 23 19" fill="none" xmlns="http://www.w3.org/2000/svg">
<g filter="url(#filter0_d_163_230)">
<path d="M12.0239 4.67539L10.3291 4.2433C10.1169 4.19012 9.96016 4.00731 9.9373 3.78461C9.91444 3.56192 10.0287 3.3492 10.2214 3.24948L11.5537 2.57143L10.143 1.49452C9.96342 1.35824 9.88832 1.11893 9.96016 0.899556C10.032 0.680185 10.2312 0.537262 10.4565 0.537262H14.1137H15.1586H15.6811C16.6672 0.537262 17.5979 1.00924 18.1889 1.8136L20.0698 4.36628C20.2722 4.64216 20.3833 4.97786 20.3833 5.32353C20.3833 6.20434 19.6812 6.91896 18.8159 6.91896H18.1138C17.5587 6.91896 17.0264 6.69626 16.6346 6.29741L16.2036 5.85534H15.1586V6.56996C15.1586 7.39426 15.5766 8.16206 16.2623 8.6008L19.7432 10.8145C20.7914 11.4825 21.4282 12.6492 21.4282 13.9089C21.4282 15.9231 19.8249 17.5551 17.8428 17.5551H16.726H14.6362H1.58446C1.4767 17.5551 1.36894 17.5418 1.27098 17.5086C0.970566 17.4155 0.725662 17.1895 0.608109 16.8937C0.562393 16.7807 0.53627 16.6643 0.529739 16.538C0.523209 16.4151 0.539536 16.2954 0.572189 16.1824C0.66362 15.8766 0.885666 15.6273 1.17955 15.5043C1.27751 15.4644 1.382 15.4379 1.48976 15.4312L14.6786 14.2313C14.9497 14.2081 15.1586 13.9754 15.1586 13.6962C15.1586 13.5533 15.1031 13.417 15.0052 13.3173L13.5553 11.8415C12.5757 10.8444 12.0239 9.49158 12.0239 8.08229V6.56996V4.67539V4.67539ZM17.2485 2.94037C17.2485 2.93705 17.2485 2.93372 17.2485 2.9304C17.2485 2.92707 17.2485 2.92375 17.2485 2.92043V2.94037ZM17.206 3.18633L15.6909 2.80077C15.6844 2.84398 15.6811 2.88719 15.6811 2.9304C15.6811 3.37246 16.0305 3.72811 16.4648 3.72811C16.8109 3.72811 17.1015 3.50209 17.206 3.18633ZM4.80412 4.40949C5.33638 3.92754 6.12334 3.87103 6.71437 4.27321L10.979 7.16492V8.08229C10.979 9.1725 11.2532 10.2361 11.7626 11.1734H4.18697C3.96819 11.1734 3.77226 11.0338 3.69716 10.8277C3.62205 10.6217 3.68083 10.3857 3.84737 10.2394L6.11354 8.25845L1.13057 9.03954C0.901993 9.07611 0.676682 8.95312 0.57872 8.7404C0.480759 8.52768 0.529739 8.27175 0.702805 8.11553L4.80412 4.40949Z" fill="#713A82"/>
</g>
<defs>
<filter id="filter0_d_163_230" x="0.52832" y="0.537262" width="21.8999" height="18.0179" filterUnits="userSpaceOnUse" color-interpolation-filters="sRGB">
<feFlood flood-opacity="0" result="BackgroundImageFix"/>
<feColorMatrix in="SourceAlpha" type="matrix" values="0 0 0 0 0 0 0 0 0 0 0 0 0 0 0 0 0 0 127 0" result="hardAlpha"/>
<feOffset dx="1" dy="1"/>
<feComposite in2="hardAlpha" operator="out"/>
<feColorMatrix type="matrix" values="0 0 0 0 1 0 0 0 0 1 0 0 0 0 1 0 0 0 1 0"/>
<feBlend mode="normal" in2="BackgroundImageFix" result="effect1_dropShadow_163_230"/>
<feBlend mode="normal" in="SourceGraphic" in2="effect1_dropShadow_163_230" result="shape"/>
</filter>
</defs>
</svg>
