<svg width="27" height="23" viewBox="0 0 27 23" fill="none" xmlns="http://www.w3.org/2000/svg">
<g filter="url(#filter0_d_163_237)">
<path d="M2.85447 13.1015L11.6137 21.2967C11.9772 21.6368 12.4571 21.8262 12.9564 21.8262C13.4557 21.8262 13.9356 21.6368 14.2991 21.2967L23.0583 13.1015C24.5319 11.7267 25.3657 9.79818 25.3657 7.78216V7.50041C25.3657 4.10476 22.9178 1.20948 19.5779 0.650822C17.3675 0.281624 15.1183 1.00545 13.5381 2.58911L12.9564 3.17205L12.3747 2.58911C10.7945 1.00545 8.54529 0.281624 6.33489 0.650822C2.99505 1.20948 0.547119 4.10476 0.547119 7.50041V7.78216C0.547119 9.79818 1.38087 11.7267 2.85447 13.1015Z" fill="#713A82"/>
</g>
<defs>
<filter id="filter0_d_163_237" x="0.547119" y="0.556137" width="25.8186" height="22.2701" filterUnits="userSpaceOnUse" color-interpolation-filters="sRGB">
<feFlood flood-opacity="0" result="BackgroundImageFix"/>
<feColorMatrix in="SourceAlpha" type="matrix" values="0 0 0 0 0 0 0 0 0 0 0 0 0 0 0 0 0 0 127 0" result="hardAlpha"/>
<feOffset dx="1" dy="1"/>
<feComposite in2="hardAlpha" operator="out"/>
<feColorMatrix type="matrix" values="0 0 0 0 1 0 0 0 0 1 0 0 0 0 1 0 0 0 1 0"/>
<feBlend mode="normal" in2="BackgroundImageFix" result="effect1_dropShadow_163_237"/>
<feBlend mode="normal" in="SourceGraphic" in2="effect1_dropShadow_163_237" result="shape"/>
</filter>
</defs>
</svg>
