<svg width="27" height="27" viewBox="0 0 27 27" fill="none" xmlns="http://www.w3.org/2000/svg">
<g filter="url(#filter0_d_163_272)">
<path d="M5.97228 21.711C5.80411 21.4017 5.59175 21.1138 5.33565 20.8577C5.06709 20.5895 4.76274 20.3707 4.43643 20.198C4.04648 19.9916 4.35472 19.5495 4.35472 19.5495C4.75384 18.9423 5.11776 18.3322 5.41865 17.8007L3.39861 15.7822H1.43753C1.06037 15.7822 0.754639 15.4762 0.754639 15.099C0.754639 14.7219 1.06037 14.4159 1.43753 14.4159H3.681C3.86257 14.4159 4.0361 14.4879 4.16415 14.6158L11.5463 21.9905C11.6745 22.1187 11.7465 22.2927 11.7465 22.4738V24.7282C11.7465 25.1056 11.4407 25.411 11.0634 25.411C10.6858 25.411 10.38 25.1057 10.38 24.7282V22.7569L8.36801 20.7475C7.82493 21.068 7.19366 21.461 6.56819 21.8931C6.5681 21.893 6.20979 22.148 5.97228 21.711Z" fill="#713A82"/>
<path d="M2.74375 21.1513C2.12934 21.1513 1.55193 21.3903 1.1172 21.8243C0.683235 22.258 0.444336 22.8348 0.444336 23.448C0.444336 24.0616 0.683321 24.6379 1.1172 25.0714C1.55185 25.5052 2.12934 25.7444 2.74375 25.7446C3.35781 25.7446 3.9353 25.5051 4.36961 25.0714C4.80391 24.6378 5.04316 24.0614 5.04316 23.448C5.04316 22.8347 4.80383 22.2579 4.36961 21.8243C3.93539 21.3903 3.35781 21.1513 2.74375 21.1513Z" fill="#713A82"/>
<path d="M9.17458 16.4144C8.87179 16.717 8.37635 16.717 8.07356 16.4145L7.31181 15.6535C7.00902 15.3511 7.00902 14.8561 7.31181 14.5536L20.3151 1.56375C20.6179 1.2613 21.2145 0.982101 21.6406 0.943364L24.8278 0.653534C25.2541 0.614798 25.5711 0.931778 25.5324 1.35805L25.243 4.53918C25.2043 4.96545 24.9249 5.56162 24.6221 5.86416L11.618 18.8556C11.3152 19.158 10.8197 19.158 10.5169 18.8556L9.75415 18.0936C9.45135 17.7911 9.45135 17.2961 9.75415 16.9936L20.6416 6.11604C20.8019 5.95625 20.8021 5.69651 20.6419 5.53655C20.4821 5.37633 20.2223 5.37633 20.0618 5.53638L9.17458 16.4144Z" fill="#713A82"/>
</g>
<defs>
<filter id="filter0_d_163_272" x="0.444336" y="0.65033" width="26.0913" height="26.0942" filterUnits="userSpaceOnUse" color-interpolation-filters="sRGB">
<feFlood flood-opacity="0" result="BackgroundImageFix"/>
<feColorMatrix in="SourceAlpha" type="matrix" values="0 0 0 0 0 0 0 0 0 0 0 0 0 0 0 0 0 0 127 0" result="hardAlpha"/>
<feOffset dx="1" dy="1"/>
<feComposite in2="hardAlpha" operator="out"/>
<feColorMatrix type="matrix" values="0 0 0 0 1 0 0 0 0 1 0 0 0 0 1 0 0 0 1 0"/>
<feBlend mode="normal" in2="BackgroundImageFix" result="effect1_dropShadow_163_272"/>
<feBlend mode="normal" in="SourceGraphic" in2="effect1_dropShadow_163_272" result="shape"/>
</filter>
</defs>
</svg>
