<svg width="25" height="25" viewBox="0 0 25 25" fill="none" xmlns="http://www.w3.org/2000/svg">
<path d="M7.20853 7.73476C7.27749 7.73476 7.34399 7.73476 7.41296 7.73476C7.47699 7.52541 7.54349 7.31852 7.61492 7.11163C8.28977 5.14126 9.25772 3.37039 10.4917 1.84828C11.0015 1.22022 11.5458 0.646351 12.1221 0.131592C8.93014 0.200555 6.04355 1.50839 3.92294 3.59205C4.84409 4.77181 5.40564 6.2225 5.54357 7.77417C6.09281 7.74954 6.64944 7.73476 7.20853 7.73476Z" fill="#713A82"/>
<path d="M3.21853 4.34818C2.22349 5.50824 1.4452 6.85794 0.947679 8.33819C2.12005 8.10667 3.31705 7.94165 4.53129 7.84313C4.40568 6.52052 3.93279 5.31613 3.21853 4.34818Z" fill="#713A82"/>
<path d="M11.9325 13.902C11.1271 12.4686 10.8414 11.0351 11.0803 9.64109C11.1173 9.42435 11.1665 9.21007 11.2281 9.00072C10.233 8.87511 9.21338 8.79383 8.17648 8.76182C7.78733 10.2642 7.57551 11.8676 7.57551 13.5301C7.57551 17.6482 8.86857 21.3968 10.9769 24.1824C11.4374 24.2366 11.9079 24.2637 12.3857 24.2637C15.6984 24.2637 18.6983 22.9288 20.878 20.7688C18.8288 19.9264 16.9865 18.8994 15.4447 17.727C13.8684 16.5349 12.6886 15.2468 11.9325 13.902Z" fill="#713A82"/>
<path d="M4.55346 8.85787C3.20622 8.9687 1.89592 9.16574 0.632419 9.43667C0.425531 10.3233 0.314697 11.2469 0.314697 12.1976C0.314697 13.0671 0.405827 13.9143 0.580697 14.732C2.79983 13.9168 4.43277 11.609 4.55346 8.85787Z" fill="#713A82"/>
<path d="M21.0036 3.75215C20.0184 3.92209 19.0775 4.14868 18.1958 4.43192C15.5112 5.29396 13.6147 6.59687 12.6788 8.19287C13.8708 8.3973 15.0408 8.66576 16.1836 9.00565C18.9372 9.82089 21.4149 10.9883 23.5429 12.4784C23.8434 12.6878 24.134 12.9045 24.4173 13.1237C24.4394 12.8183 24.4517 12.5129 24.4517 12.2026C24.4517 8.90959 23.1365 5.92694 21.0036 3.75215Z" fill="#713A82"/>
<path d="M11.6148 8.03031C11.999 7.2668 12.563 6.55746 13.3019 5.9097C14.462 4.8925 16.0038 4.07233 17.8855 3.46644C18.5825 3.24231 19.314 3.05267 20.0726 2.8975C18.2894 1.42218 16.0752 0.449314 13.6467 0.195629C11.3241 1.93941 9.48923 4.59448 8.4671 7.75939C9.52864 7.7988 10.5803 7.88993 11.6148 8.03031Z" fill="#713A82"/>
<path d="M6.56077 13.5326C6.56077 11.8947 6.75288 10.2913 7.13218 8.7495C6.60757 8.7495 6.08542 8.76428 5.5682 8.79137C5.51155 10.6928 4.82192 12.476 3.61507 13.8331C2.82692 14.7197 1.87622 15.3576 0.836845 15.7197C2.07325 19.7811 5.39333 22.9337 9.55327 23.9337C8.75774 22.7268 8.10505 21.3919 7.61246 19.9535C6.91544 17.9191 6.56077 15.7591 6.56077 13.5326Z" fill="#713A82"/>
<path d="M12.0778 9.8135C11.6788 12.1459 13.0901 14.6705 16.0555 16.9241C17.617 18.1112 19.5036 19.1432 21.6119 19.9757C22.9543 18.3846 23.8951 16.4389 24.2695 14.301C21.2253 11.7691 17.0308 9.91941 12.2453 9.1485C12.1739 9.36524 12.1172 9.58691 12.0778 9.8135Z" fill="#713A82"/>
</svg>
