<svg width="28" height="27" viewBox="0 0 28 27" fill="none" xmlns="http://www.w3.org/2000/svg">
<g filter="url(#filter0_d_163_268)">
<path d="M12.527 0.43554C10.7754 0.620201 9.46581 0.97845 8.04981 1.65554C6.67863 2.31589 5.67137 3.03239 4.58014 4.12362C2.61042 6.09334 1.4239 8.45505 0.987355 11.259C0.853173 12.1485 0.853173 13.9506 0.987355 14.8407C1.32886 17.0288 2.13473 18.9596 3.44976 20.7112C3.9646 21.3996 5.15653 22.5916 5.84495 23.1064C7.59653 24.416 9.53844 25.233 11.7155 25.5688C12.6053 25.703 14.413 25.703 15.2972 25.5688C18.4032 25.0874 21.1845 23.5483 23.1488 21.2204C24.6711 19.407 25.656 17.2245 26.0253 14.8404C26.1595 13.9563 26.1595 12.1485 26.0253 11.2587C25.6895 9.07599 24.8779 7.14542 23.5629 5.38817C23.0481 4.69975 21.8561 3.50782 21.1677 2.99298C19.4272 1.68902 17.4742 0.866418 15.3531 0.541909C14.788 0.457948 12.986 0.390727 12.527 0.43554ZM14.3458 3.20572C15.6441 3.32316 16.7356 3.63093 17.8994 4.21298C18.8341 4.6776 19.5393 5.17003 20.2892 5.8806C21.168 6.71454 21.8394 7.61544 22.371 8.67319C22.6285 9.18236 22.7068 9.5182 22.6285 9.80356C22.5781 9.99389 22.3486 10.2568 22.1863 10.3184C22.1582 10.3295 22.1977 11.1019 22.2984 12.266C22.3823 13.3294 22.4606 14.2025 22.4606 14.2025C22.4606 14.2081 22.5389 14.2416 22.6285 14.2808C22.8467 14.3704 23.1099 14.6725 23.1601 14.8852C23.1993 15.0866 23.0313 15.7807 22.757 16.5194C22.0017 18.5563 20.5298 20.3305 18.627 21.5001C17.7987 22.0092 16.4332 22.5635 16.008 22.5635C15.5658 22.5635 15.2356 22.2166 15.1406 21.6512L15.0958 21.4161L13.5567 21.3994L12.0119 21.388L11.9223 21.7517C11.7152 22.58 11.29 22.7479 10.2882 22.3953C7.71371 21.4774 5.69918 19.6586 4.5464 17.2186C4.14334 16.3623 3.77968 15.1368 3.8469 14.8682C3.89712 14.6779 4.18274 14.3645 4.38414 14.2805C4.49618 14.2357 4.55207 14.1685 4.55773 14.0902C4.55773 14.0286 4.62495 13.1555 4.70891 12.1537L4.86009 10.3292L4.69217 10.2172C4.45162 10.066 4.31718 9.77497 4.34526 9.47854C4.39573 9.01392 5.11764 7.71563 5.8004 6.86495C6.29283 6.25508 7.16591 5.43221 7.79819 4.97893C8.41373 4.54239 9.69528 3.8877 10.3446 3.68063C11.7827 3.22812 13.0027 3.08261 14.3458 3.20572Z" fill="#713A82"/>
<path d="M11.4974 9.05383C9.5555 9.24416 7.60226 9.63022 5.99619 10.1507C5.47028 10.3186 5.44788 10.3297 5.44788 10.4866C5.44788 10.5705 5.39766 11.4155 5.33044 12.3558C5.26888 13.2961 5.22407 14.0796 5.2354 14.0907C5.24673 14.1018 5.57124 14.085 5.95164 14.0515C8.0388 13.8723 9.77364 14.5272 10.8036 15.8757C11.587 16.9054 12.0349 18.394 12.0684 20.073L12.0797 20.8006L13.5683 20.8173L15.057 20.8284L15.1018 20.1456C15.2192 18.0301 15.7789 16.5752 16.8701 15.5342C17.9222 14.538 19.1592 14.0904 20.9164 14.0848H21.8006L21.7671 13.6091C21.7504 13.3461 21.7112 12.6296 21.6775 12.0141C21.6437 11.3985 21.6048 10.766 21.5878 10.6037L21.5598 10.3127L21.0784 10.1391C19.5339 9.58515 17.8774 9.22123 16.081 9.0479C15.068 8.94746 12.5217 8.94746 11.4974 9.05383ZM14.4298 11.4547C15.1685 11.7122 15.51 12.1933 15.2748 12.6466C15.1574 12.8707 14.9727 13.0273 14.5978 13.2009C14.2846 13.3464 14.2174 13.3574 13.5065 13.3574C12.7957 13.3574 12.7287 13.3461 12.4153 13.2009C11.1953 12.6299 11.4696 11.7179 12.975 11.3483C13.2098 11.2924 14.1558 11.3596 14.4298 11.4547Z" fill="#713A82"/>
</g>
<defs>
<filter id="filter0_d_163_268" x="0.886719" y="0.421204" width="26.2393" height="26.2482" filterUnits="userSpaceOnUse" color-interpolation-filters="sRGB">
<feFlood flood-opacity="0" result="BackgroundImageFix"/>
<feColorMatrix in="SourceAlpha" type="matrix" values="0 0 0 0 0 0 0 0 0 0 0 0 0 0 0 0 0 0 127 0" result="hardAlpha"/>
<feOffset dx="1" dy="1"/>
<feComposite in2="hardAlpha" operator="out"/>
<feColorMatrix type="matrix" values="0 0 0 0 1 0 0 0 0 1 0 0 0 0 1 0 0 0 1 0"/>
<feBlend mode="normal" in2="BackgroundImageFix" result="effect1_dropShadow_163_268"/>
<feBlend mode="normal" in="SourceGraphic" in2="effect1_dropShadow_163_268" result="shape"/>
</filter>
</defs>
</svg>
