<svg width="24" height="29" viewBox="0 0 24 29" fill="none" xmlns="http://www.w3.org/2000/svg">
<g filter="url(#filter0_d_163_264)">
<path d="M0.52832 10.542V1.80917C0.52832 1.31718 0.932439 0.914642 1.42636 0.914642H4.5695C5.06343 0.914642 5.46754 1.31718 5.46754 1.80917V4.04549C5.46754 4.29149 5.6696 4.49276 5.91656 4.49276H7.71265C7.95961 4.49276 8.16167 4.29149 8.16167 4.04549V1.80917C8.16167 1.31718 8.56578 0.914642 9.05971 0.914642H13.5499C14.0438 0.914642 14.448 1.31718 14.448 1.80917V4.04549C14.448 4.29149 14.65 4.49276 14.897 4.49276H16.6931C16.94 4.49276 17.1421 4.29149 17.1421 4.04549V1.80917C17.1421 1.31718 17.5462 0.914642 18.0401 0.914642H21.1833C21.6772 0.914642 22.0813 1.31718 22.0813 1.80917V10.542C22.0813 11.2185 21.6996 11.8391 21.0878 12.141L19.4826 12.9405C18.8764 13.2424 18.4891 13.8629 18.5004 14.5394C18.6126 19.2916 19.3872 22.3833 19.3872 22.3833H3.22244C3.22244 22.3833 3.997 19.2916 4.10926 14.545C4.1261 13.8685 3.73882 13.248 3.12703 12.946L1.52178 12.141C0.909988 11.8391 0.52832 11.2185 0.52832 10.542ZM10.4068 17.0162H12.2028C12.6968 17.0162 13.1009 16.6136 13.1009 16.1216V13.438C13.1009 12.4485 12.2983 11.649 11.3048 11.649C10.3114 11.649 9.50873 12.4485 9.50873 13.438V16.1216C9.50873 16.6136 9.91285 17.0162 10.4068 17.0162ZM2.3244 24.1724H20.2852C21.2787 24.1724 22.0813 24.9719 22.0813 25.9614C22.0813 26.951 21.2787 27.7505 20.2852 27.7505H2.3244C1.33094 27.7505 0.52832 26.951 0.52832 25.9614C0.52832 24.9719 1.33094 24.1724 2.3244 24.1724Z" fill="#713A82"/>
</g>
<defs>
<filter id="filter0_d_163_264" x="0.52832" y="0.914642" width="22.553" height="27.8358" filterUnits="userSpaceOnUse" color-interpolation-filters="sRGB">
<feFlood flood-opacity="0" result="BackgroundImageFix"/>
<feColorMatrix in="SourceAlpha" type="matrix" values="0 0 0 0 0 0 0 0 0 0 0 0 0 0 0 0 0 0 127 0" result="hardAlpha"/>
<feOffset dx="1" dy="1"/>
<feComposite in2="hardAlpha" operator="out"/>
<feColorMatrix type="matrix" values="0 0 0 0 1 0 0 0 0 1 0 0 0 0 1 0 0 0 1 0"/>
<feBlend mode="normal" in2="BackgroundImageFix" result="effect1_dropShadow_163_264"/>
<feBlend mode="normal" in="SourceGraphic" in2="effect1_dropShadow_163_264" result="shape"/>
</filter>
</defs>
</svg>
