<svg width="27" height="27" viewBox="0 0 27 27" fill="none" xmlns="http://www.w3.org/2000/svg">
<g filter="url(#filter0_d_163_225)">
<path d="M12.9564 2.90678C7.38677 2.90678 2.87386 7.42945 2.87386 13.0111V14.9543C2.87386 15.6004 2.35519 16.1202 1.71049 16.1202C1.06579 16.1202 0.547119 15.6004 0.547119 14.9543V13.0111C0.547119 6.14212 6.10221 0.575005 12.9564 0.575005C19.8106 0.575005 25.3657 6.14212 25.3657 13.0111V20.0113C25.3657 22.3722 23.4558 24.2862 21.0952 24.2862L15.7485 24.2814C15.3462 24.976 14.5948 25.4473 13.732 25.4473H12.1808C10.8963 25.4473 9.85409 24.4028 9.85409 23.1155C9.85409 21.8282 10.8963 20.7837 12.1808 20.7837H13.732C14.5948 20.7837 15.3462 21.2549 15.7485 21.9496L21.1 21.9545C22.1713 21.9545 23.039 21.0849 23.039 20.0113V13.0111C23.039 7.42945 18.526 2.90678 12.9564 2.90678ZM7.52734 10.6794H8.30292C9.16091 10.6794 9.85409 11.374 9.85409 12.2339V17.6747C9.85409 18.5345 9.16091 19.2292 8.30292 19.2292H7.52734C5.81622 19.2292 4.42502 17.835 4.42502 16.1202V13.7884C4.42502 12.0736 5.81622 10.6794 7.52734 10.6794ZM18.3855 10.6794C20.0966 10.6794 21.4878 12.0736 21.4878 13.7884V16.1202C21.4878 17.835 20.0966 19.2292 18.3855 19.2292H17.6099C16.7519 19.2292 16.0587 18.5345 16.0587 17.6747V12.2339C16.0587 11.374 16.7519 10.6794 17.6099 10.6794H18.3855Z" fill="#713A82"/>
</g>
<defs>
<filter id="filter0_d_163_225" x="0.547119" y="0.575005" width="25.8186" height="25.8723" filterUnits="userSpaceOnUse" color-interpolation-filters="sRGB">
<feFlood flood-opacity="0" result="BackgroundImageFix"/>
<feColorMatrix in="SourceAlpha" type="matrix" values="0 0 0 0 0 0 0 0 0 0 0 0 0 0 0 0 0 0 127 0" result="hardAlpha"/>
<feOffset dx="1" dy="1"/>
<feComposite in2="hardAlpha" operator="out"/>
<feColorMatrix type="matrix" values="0 0 0 0 1 0 0 0 0 1 0 0 0 0 1 0 0 0 1 0"/>
<feBlend mode="normal" in2="BackgroundImageFix" result="effect1_dropShadow_163_225"/>
<feBlend mode="normal" in="SourceGraphic" in2="effect1_dropShadow_163_225" result="shape"/>
</filter>
</defs>
</svg>
