<svg width="29" height="26" viewBox="0 0 29 26" fill="none" xmlns="http://www.w3.org/2000/svg">
<g filter="url(#filter0_d_163_224)">
<path d="M6.4915 12.7487C6.4915 12.7734 6.4915 12.798 6.4915 12.8204L7.48266 11.8214C7.62073 11.682 7.78483 11.5712 7.96557 11.4954C8.14631 11.4196 8.34016 11.3803 8.53605 11.3797C8.73194 11.3791 8.92604 11.4171 9.10726 11.4918C9.28848 11.5664 9.45327 11.6762 9.59222 11.8147C9.73118 11.9532 9.84158 12.1179 9.91712 12.2992C9.99265 12.4806 10.0319 12.6751 10.0325 12.8717C10.0331 13.0682 9.99513 13.263 9.92074 13.4448C9.84635 13.6266 9.737 13.792 9.59892 13.9314L6.19906 17.3696C5.92474 17.6457 5.55402 17.8036 5.16558 17.8098C4.77713 17.8161 4.40154 17.6703 4.11851 17.4032L0.649448 14.3435C0.38727 14.0735 0.236326 13.7142 0.226798 13.3373C0.21727 12.9605 0.34986 12.5939 0.598056 12.3109C0.846253 12.0279 1.19176 11.8494 1.5655 11.8109C1.93924 11.7725 2.31367 11.877 2.61391 12.1036L3.50685 12.8966C3.39354 10.4546 4.01586 8.03493 5.29273 5.9529C6.55954 3.88856 8.43061 2.26696 10.6504 1.3096C11.4419 0.969156 12.2642 0.705876 13.1059 0.523399C15.8014 -0.0859572 18.6247 0.278344 21.0789 1.55217C23.533 2.82599 25.4606 4.92768 26.5223 7.48723C26.8614 8.28069 27.1209 9.10606 27.297 9.95111C27.7256 11.9545 27.6248 14.0354 27.0045 15.9876C26.3746 17.9309 25.2568 19.6788 23.7587 21.0632C22.3281 22.4181 20.6044 23.4224 18.7225 23.9975C17.2104 24.452 15.6175 24.5695 14.0554 24.3416C12.4933 24.1137 10.9998 23.546 9.67928 22.6782C9.34744 22.4622 9.11467 22.1229 9.0322 21.7347C8.94973 21.3466 9.0243 20.9415 9.23951 20.6085C9.45472 20.2756 9.79295 20.042 10.1798 19.9592C10.5666 19.8765 10.9704 19.9513 11.3022 20.1673C11.6928 20.4279 12.106 20.6527 12.5367 20.8392C12.9479 21.0152 13.3736 21.1546 13.8091 21.2558C15.1529 21.5725 16.5559 21.5308 17.8787 21.1349C19.322 20.6879 20.6424 19.9112 21.7362 18.8659C22.8652 17.8253 23.7059 16.5087 24.1761 15.0446C24.641 13.5907 24.718 12.04 24.3994 10.5469C24.2613 9.89449 24.061 9.25691 23.8011 8.64301C23.0104 6.72391 21.5671 5.14823 19.7279 4.19598C17.8887 3.24373 15.7726 2.97657 13.7555 3.44198C13.103 3.58119 12.4658 3.78528 11.8536 4.05123C10.1913 4.75874 8.78947 5.96733 7.84206 7.50963C6.87688 9.07992 6.40619 10.9058 6.4915 12.7487ZM13.7198 7.84785C13.7198 7.48488 13.8635 7.13678 14.1193 6.88012C14.3751 6.62346 14.722 6.47927 15.0838 6.47927C15.4455 6.47927 15.7925 6.62346 16.0483 6.88012C16.3041 7.13678 16.4478 7.48488 16.4478 7.84785V12.1036L19.7717 13.956C20.0873 14.1325 20.3201 14.4275 20.4189 14.7761C20.5177 15.1248 20.4744 15.4985 20.2986 15.8151C20.1227 16.1318 19.8287 16.3654 19.4812 16.4645C19.1338 16.5636 18.7613 16.5202 18.4457 16.3438L14.5235 14.1554C14.284 14.0471 14.0808 13.8718 13.9383 13.6505C13.7957 13.4292 13.7199 13.1713 13.7198 12.9078V7.84785Z" fill="#713A82"/>
</g>
<defs>
<filter id="filter0_d_163_224" x="0.226318" y="0.235382" width="28.3315" height="25.2193" filterUnits="userSpaceOnUse" color-interpolation-filters="sRGB">
<feFlood flood-opacity="0" result="BackgroundImageFix"/>
<feColorMatrix in="SourceAlpha" type="matrix" values="0 0 0 0 0 0 0 0 0 0 0 0 0 0 0 0 0 0 127 0" result="hardAlpha"/>
<feOffset dx="1" dy="1"/>
<feComposite in2="hardAlpha" operator="out"/>
<feColorMatrix type="matrix" values="0 0 0 0 1 0 0 0 0 1 0 0 0 0 1 0 0 0 1 0"/>
<feBlend mode="normal" in2="BackgroundImageFix" result="effect1_dropShadow_163_224"/>
<feBlend mode="normal" in="SourceGraphic" in2="effect1_dropShadow_163_224" result="shape"/>
</filter>
</defs>
</svg>
