<svg width="25" height="27" viewBox="0 0 25 27" fill="none" xmlns="http://www.w3.org/2000/svg">
<g filter="url(#filter0_d_163_239)">
<path d="M9.02465 5.66604C9.02465 5.21912 8.7583 4.82563 8.41847 4.55845C7.88577 4.13582 7.55512 3.55287 7.55512 2.90678C7.55512 1.61944 8.8731 0.575005 10.4942 0.575005C12.1152 0.575005 13.4332 1.61944 13.4332 2.90678C13.4332 3.55287 13.1026 4.13582 12.5699 4.55845C12.23 4.82563 11.9637 5.21912 11.9637 5.66604C11.9637 6.28785 12.4413 6.79307 13.0291 6.79307H15.6375C16.8544 6.79307 17.8418 7.83751 17.8418 9.12484V11.8841C17.8418 12.5059 18.3194 13.0111 18.9072 13.0111C19.3297 13.0111 19.7016 12.7294 19.9542 12.3699C20.3537 11.8064 20.9048 11.4566 21.5156 11.4566C22.7325 11.4566 23.7199 12.8508 23.7199 14.5656C23.7199 16.2805 22.7325 17.6747 21.5156 17.6747C20.9048 17.6747 20.3537 17.3249 19.9542 16.7614C19.7016 16.4019 19.3297 16.1202 18.9072 16.1202C18.3194 16.1202 17.8418 16.6254 17.8418 17.2472V23.1155C17.8418 24.4028 16.8544 25.4473 15.6375 25.4473H13.0291C12.4413 25.4473 11.9637 24.942 11.9637 24.3202C11.9637 23.8733 12.23 23.4798 12.5699 23.2126C13.1026 22.79 13.4332 22.2071 13.4332 21.561C13.4332 20.2736 12.1152 19.2292 10.4942 19.2292C8.8731 19.2292 7.55512 20.2736 7.55512 21.561C7.55512 22.2071 7.88577 22.79 8.41847 23.2126C8.7583 23.4798 9.02465 23.8733 9.02465 24.3202C9.02465 24.942 8.54705 25.4473 7.95924 25.4473H2.4118C1.19485 25.4473 0.20752 24.4028 0.20752 23.1155V17.2472C0.20752 16.6254 0.685114 16.1202 1.27292 16.1202C1.69541 16.1202 2.06738 16.4019 2.31996 16.7614C2.71948 17.3249 3.27055 17.6747 3.88132 17.6747C5.09827 17.6747 6.0856 16.2805 6.0856 14.5656C6.0856 12.8508 5.09827 11.4566 3.88132 11.4566C3.27055 11.4566 2.71948 11.8064 2.31996 12.3699C2.06738 12.7294 1.69541 13.0111 1.27292 13.0111C0.685114 13.0111 0.20752 12.5059 0.20752 11.8841V9.12484C0.20752 7.83751 1.19485 6.79307 2.4118 6.79307H7.95924C8.54705 6.79307 9.02465 6.28785 9.02465 5.66604Z" fill="#713A82"/>
</g>
<defs>
<filter id="filter0_d_163_239" x="0.20752" y="0.575005" width="24.5125" height="25.8723" filterUnits="userSpaceOnUse" color-interpolation-filters="sRGB">
<feFlood flood-opacity="0" result="BackgroundImageFix"/>
<feColorMatrix in="SourceAlpha" type="matrix" values="0 0 0 0 0 0 0 0 0 0 0 0 0 0 0 0 0 0 127 0" result="hardAlpha"/>
<feOffset dx="1" dy="1"/>
<feComposite in2="hardAlpha" operator="out"/>
<feColorMatrix type="matrix" values="0 0 0 0 1 0 0 0 0 1 0 0 0 0 1 0 0 0 1 0"/>
<feBlend mode="normal" in2="BackgroundImageFix" result="effect1_dropShadow_163_239"/>
<feBlend mode="normal" in="SourceGraphic" in2="effect1_dropShadow_163_239" result="shape"/>
</filter>
</defs>
</svg>
