<svg width="23" height="19" viewBox="0 0 23 19" fill="none" xmlns="http://www.w3.org/2000/svg">
<g filter="url(#filter0_d_163_295)">
<path d="M19.3822 4.37195C19.3959 4.56381 19.3959 4.75572 19.3959 4.94758C19.3959 10.7997 14.9411 17.5428 6.79886 17.5428C4.2904 17.5428 1.96016 16.8163 0 15.5555C0.356404 15.5966 0.699054 15.6103 1.06917 15.6103C3.13895 15.6103 5.0443 14.9114 6.56583 13.719C4.61938 13.6779 2.98819 12.4033 2.42618 10.649C2.70035 10.6901 2.97448 10.7175 3.26236 10.7175C3.65987 10.7175 4.05741 10.6627 4.42748 10.5668C2.3988 10.1556 0.877235 8.3739 0.877235 6.22217V6.16737C1.46663 6.4963 2.15206 6.70187 2.87849 6.72925C1.68595 5.93433 0.904661 4.57752 0.904661 3.04252C0.904661 2.22021 1.12394 1.46642 1.50777 0.808562C3.68725 3.4948 6.96333 5.24905 10.6369 5.44096C10.5683 5.11203 10.5272 4.76943 10.5272 4.42679C10.5272 1.98722 12.5011 -3.05176e-05 14.9547 -3.05176e-05C16.2295 -3.05176e-05 17.3809 0.534475 18.1896 1.39791C19.1902 1.20605 20.1497 0.835983 20.9996 0.328899C20.6706 1.35682 19.9716 2.22026 19.0532 2.76843C19.9442 2.67254 20.8077 2.42579 21.6027 2.08319C20.9997 2.96029 20.2458 3.74147 19.3822 4.37195Z" fill="#713A82"/>
</g>
<defs>
<filter id="filter0_d_163_295" x="0" y="-3.05176e-05" width="22.6028" height="18.5428" filterUnits="userSpaceOnUse" color-interpolation-filters="sRGB">
<feFlood flood-opacity="0" result="BackgroundImageFix"/>
<feColorMatrix in="SourceAlpha" type="matrix" values="0 0 0 0 0 0 0 0 0 0 0 0 0 0 0 0 0 0 127 0" result="hardAlpha"/>
<feOffset dx="1" dy="1"/>
<feComposite in2="hardAlpha" operator="out"/>
<feColorMatrix type="matrix" values="0 0 0 0 1 0 0 0 0 1 0 0 0 0 1 0 0 0 1 0"/>
<feBlend mode="normal" in2="BackgroundImageFix" result="effect1_dropShadow_163_295"/>
<feBlend mode="normal" in="SourceGraphic" in2="effect1_dropShadow_163_295" result="shape"/>
</filter>
</defs>
</svg>
